%FSDAX23Y23*%
%MOIN*%
%SFA1B1*%

%IPPOS*%
%ADD9500C,0.007870*%
%LNtivac-1*%
%LPD*%
G54D9500*
X00305Y00840D03*
Y00940D03*
Y01035D03*
Y01109D03*
Y01145D03*
X00470Y01300D03*
X00900Y01340D03*
X00960Y01400D03*
X00860Y01425D03*
X00894Y01520D03*
X01220Y01440D03*
X01170Y01320D03*
X01290Y01310D03*
X01275Y01235D03*
X01305Y01173D03*
X01291Y01088D03*
X01285Y01050D03*
X01355Y01080D03*
X01470Y01040D03*
X01515Y01200D03*
X01560Y01265D03*
X01505Y01340D03*
X01385Y01400D03*
X01545Y01560D03*
X01195Y01200D03*
X01209Y01145D03*
X00830Y01125D03*
X00840Y00747D03*
X00750Y00768D03*
X00850Y00645D03*
X00915Y00638D03*
X00943Y00646D03*
X00975Y00640D03*
X01180Y00490D03*
X01315Y00610D03*
X01250Y00785D03*
X01655Y00710D03*
Y00635D03*
Y00595D03*
X01700Y00985D03*
X01585Y01530D03*
X01595Y01610D03*
Y01690D03*
X01590Y02175D03*
X01656Y02228D03*
X01415Y02365D03*
X01095Y02445D03*
X00725Y02365D03*
X00805Y02150D03*
Y02075D03*
X00969Y01955D03*
X01290Y01895D03*
X01285Y01860D03*
X01355Y01974D03*
X01460Y01975D03*
X01335Y01675D03*
X01265Y01685D03*
X01110Y01700D03*
X00980Y01580D03*
X00880Y01565D03*
X00710Y01700D03*
X00255Y02035D03*
X00050D03*
X00395Y02420D03*
X00450Y02505D03*
M02*