%FSDAX23Y23*%
%MOIN*%
%SFA1B1*%

%IPPOS*%
%ADD9500C,0.007870*%
%LNtivac-1*%
%LPD*%
G54D9500*
X00305Y00540D03*
Y00640D03*
Y00695D03*
Y00740D03*
Y00795D03*
Y00900D03*
Y00995D03*
Y01073D03*
X00630Y00990D03*
X00660Y00955D03*
X00696Y00925D03*
X00700Y00770D03*
X00775Y00661D03*
X00865Y00690D03*
X00870Y00720D03*
X01065Y00625D03*
X01202Y00697D03*
X01240Y00690D03*
X01230Y00725D03*
X01265Y00744D03*
X01282Y00697D03*
X01331Y00540D03*
X01560Y00412D03*
X01390Y00895D03*
X01555Y01190D03*
X01305Y01285D03*
X00864Y01284D03*
X00780Y01285D03*
X00770Y01073D03*
X00732Y01080D03*
X00940Y01370D03*
X01645Y01040D03*
X01685Y00540D03*
X01665Y00390D03*
X01926Y00361D03*
X01935Y01670D03*
X01920Y02075D03*
X01960Y02125D03*
X01940Y02205D03*
Y02295D03*
X01965Y02420D03*
X01370Y02455D03*
X01301D03*
X01332Y02422D03*
X01345Y02370D03*
X01240Y02440D03*
X00960Y02435D03*
X01002Y01912D03*
X01070Y01900D03*
X01100Y01905D03*
X01140D03*
X01155Y01835D03*
X01110Y01825D03*
X01030Y01815D03*
Y01605D03*
X01235Y01835D03*
X01239Y01899D03*
X01410Y01925D03*
X01450Y02105D03*
X00650Y01960D03*
M02*