%FSDAX23Y23*%
%MOIN*%
%SFA1B1*%

%IPPOS*%
%AMD37*
4,1,8,-0.016700,0.004900,-0.016700,-0.004900,-0.014700,-0.006900,0.014700,-0.006900,0.016700,-0.004900,0.016700,0.004900,0.014700,0.006900,-0.014700,0.006900,-0.016700,0.004900,0.0*
1,1,0.004000,-0.014700,0.004900*
1,1,0.004000,-0.014700,-0.004900*
1,1,0.004000,0.014700,-0.004900*
1,1,0.004000,0.014700,0.004900*
%
%AMD38*
4,1,8,-0.029500,0.047100,-0.029500,-0.047100,-0.027500,-0.049200,0.027500,-0.049200,0.029500,-0.047100,0.029500,0.047100,0.027500,0.049200,-0.027500,0.049200,-0.029500,0.047100,0.0*
1,1,0.004140,-0.027500,0.047100*
1,1,0.004140,-0.027500,-0.047100*
1,1,0.004140,0.027500,-0.047100*
1,1,0.004140,0.027500,0.047100*
%
%AMD39*
4,1,8,-0.019500,-0.015300,-0.015300,-0.019500,-0.012500,-0.019400,0.019400,0.012500,0.019500,0.015300,0.015300,0.019500,0.012500,0.019400,-0.019400,-0.012500,-0.019500,-0.015300,0.0*
1,1,0.003940,-0.018100,-0.013900*
1,1,0.003940,-0.013900,-0.018100*
1,1,0.003940,0.018100,0.013900*
1,1,0.003940,0.013900,0.018100*
%
%AMD40*
4,1,8,0.015300,-0.019500,0.019500,-0.015300,0.019400,-0.012500,-0.012500,0.019400,-0.015300,0.019500,-0.019500,0.015300,-0.019400,0.012500,0.012500,-0.019400,0.015300,-0.019500,0.0*
1,1,0.003940,0.013900,-0.018100*
1,1,0.003940,0.018100,-0.013900*
1,1,0.003940,-0.013900,0.018100*
1,1,0.003940,-0.018100,0.013900*
%
%AMD41*
4,1,8,0.003000,0.024600,-0.003000,0.024600,-0.004900,0.022600,-0.004900,-0.022600,-0.003000,-0.024600,0.003000,-0.024600,0.004900,-0.022600,0.004900,0.022600,0.003000,0.024600,0.0*
1,1,0.003940,0.003000,0.022600*
1,1,0.003940,-0.003000,0.022600*
1,1,0.003940,-0.003000,-0.022600*
1,1,0.003940,0.003000,-0.022600*
%
%AMD42*
4,1,8,-0.024600,0.003000,-0.024600,-0.003000,-0.022600,-0.004900,0.022600,-0.004900,0.024600,-0.003000,0.024600,0.003000,0.022600,0.004900,-0.022600,0.004900,-0.024600,0.003000,0.0*
1,1,0.003940,-0.022600,0.003000*
1,1,0.003940,-0.022600,-0.003000*
1,1,0.003940,0.022600,-0.003000*
1,1,0.003940,0.022600,0.003000*
%
%ADD15R,0.053150X0.015750*%
%ADD16R,0.062990X0.082680*%
%ADD17R,0.074800X0.070870*%
%ADD18R,0.074800X0.074800*%
%ADD19R,0.070870X0.074800*%
%ADD20R,0.074800X0.074800*%
%ADD21R,0.082680X0.062990*%
%ADD22R,0.015750X0.053150*%
%ADD23R,0.020470X0.021260*%
%ADD24R,0.021260X0.020470*%
%ADD25R,0.078740X0.094490*%
%ADD26R,0.094490X0.078740*%
%ADD27R,0.045530X0.041820*%
%ADD28R,0.019680X0.017720*%
%ADD29R,0.017720X0.019680*%
%ADD30R,0.020000X0.014020*%
%ADD31R,0.029530X0.033470*%
%ADD32R,0.047240X0.047240*%
%ADD33R,0.047240X0.098430*%
%ADD34R,0.061020X0.051180*%
%ADD35R,0.023620X0.025200*%
%ADD36R,0.025200X0.023620*%
G04~CAMADD=37~8~0.0~0.0~137.8~334.7~20.0~0.0~15~0.0~0.0~0.0~0.0~0~0.0~0.0~0.0~0.0~0~0.0~0.0~0.0~90.0~334.0~138.0*
%ADD37D37*%
G04~CAMADD=38~8~0.0~0.0~984.3~590.6~20.7~0.0~15~0.0~0.0~0.0~0.0~0~0.0~0.0~0.0~0.0~0~0.0~0.0~0.0~90.0~590.0~984.0*
%ADD38D38*%
G04~CAMADD=39~8~0.0~0.0~98.4~492.1~19.7~0.0~15~0.0~0.0~0.0~0.0~0~0.0~0.0~0.0~0.0~0~0.0~0.0~0.0~135.0~400.0~400.0*
%ADD39D39*%
G04~CAMADD=40~8~0.0~0.0~98.4~492.1~19.7~0.0~15~0.0~0.0~0.0~0.0~0~0.0~0.0~0.0~0.0~0~0.0~0.0~0.0~225.0~400.0~400.0*
%ADD40D40*%
G04~CAMADD=41~8~0.0~0.0~98.4~492.1~19.7~0.0~15~0.0~0.0~0.0~0.0~0~0.0~0.0~0.0~0.0~0~0.0~0.0~0.0~0.0~98.4~492.1*
%ADD41D41*%
G04~CAMADD=42~8~0.0~0.0~98.4~492.1~19.7~0.0~15~0.0~0.0~0.0~0.0~0~0.0~0.0~0.0~0.0~0~0.0~0.0~0.0~90.0~492.0~98.0*
%ADD42D42*%
%ADD43R,0.023620X0.023620*%
%ADD44R,0.023620X0.023620*%
%ADD45R,0.017720X0.017720*%
%ADD46R,0.098430X0.039370*%
%ADD47R,0.098430X0.098430*%
%LNtivac-1*%
%LPD*%
G54D15*
X00228Y01713D03*
Y01688D03*
Y01662D03*
Y01637D03*
Y01611D03*
G54D16*
X00223Y01784D03*
X00213Y01542D03*
G54D17*
X00123Y01820D03*
Y01505D03*
G54D18*
X00123Y01710D03*
Y01615D03*
G54D19*
X00516Y02525D03*
X00831D03*
G54D20*
X00626Y02525D03*
X00720D03*
G54D21*
X00553Y02435D03*
X00795Y02424D03*
G54D22*
X00622Y02419D03*
X00647D03*
X00673D03*
X00699D03*
X00724D03*
G54D23*
X01613Y02405D03*
Y02375D03*
Y02234D03*
Y02265D03*
G54D24*
X00417Y01223D03*
X00448D03*
X00641D03*
X00610D03*
G54D25*
X00612Y01380D03*
X00769D03*
G54D26*
X01745Y02255D03*
Y02412D03*
G54D27*
X01601Y01040D03*
X01534D03*
X01462Y01601D03*
X01395D03*
X00886Y00512D03*
X00953D03*
X01041D03*
X01108D03*
X01444Y01495D03*
X01511D03*
X01440Y01406D03*
X01507D03*
X00666Y00250D03*
X00733D03*
X00193Y01955D03*
X00126D03*
X00428Y02246D03*
X00495D03*
X01523Y02245D03*
X01456D03*
X00556Y01234D03*
X00489D03*
G54D28*
X01792Y01514D03*
X01763D03*
X01794Y01590D03*
X01765D03*
X01794Y01670D03*
X01765D03*
X01560Y00390D03*
X01589D03*
X01115Y01345D03*
X01144D03*
G54D29*
X00800Y01845D03*
Y01874D03*
X00807Y02005D03*
Y02034D03*
X01940Y02269D03*
Y02240D03*
Y02420D03*
Y02390D03*
X00895Y01848D03*
Y01878D03*
X00400Y02505D03*
Y02534D03*
X00640Y02051D03*
Y02021D03*
X00924Y01430D03*
Y01401D03*
G54D30*
X01644Y01517D03*
Y01478D03*
X01695Y01498D03*
X01642Y01688D03*
Y01649D03*
X01693Y01669D03*
X01641Y01610D03*
Y01571D03*
X01692Y01591D03*
G54D31*
X01055Y02495D03*
X01104D03*
X01392Y01247D03*
X01441D03*
G54D32*
X00735Y02038D03*
Y02121D03*
G54D33*
X00186Y02521D03*
Y02305D03*
X00088D03*
Y02521D03*
X00285D03*
Y02305D03*
G54D34*
X00198Y00071D03*
Y00248D03*
X00511D03*
Y00071D03*
X01428Y00081D03*
Y00258D03*
X01741D03*
Y00081D03*
X01921Y02018D03*
Y01841D03*
X01608D03*
Y02018D03*
G54D35*
X01503Y02355D03*
X01466D03*
X01113Y01865D03*
X01075D03*
X00543Y01158D03*
X00506D03*
X00689Y00614D03*
X00727D03*
G54D36*
X00400Y02052D03*
Y02090D03*
X00930Y01517D03*
Y01479D03*
Y01603D03*
Y01566D03*
G54D37*
X00471Y02109D03*
Y02084D03*
Y02058D03*
Y02032D03*
X00588Y02109D03*
Y02084D03*
Y02058D03*
Y02032D03*
G54D38*
X00530Y02071D03*
G54D39*
X00971Y00683D03*
X00957Y00697D03*
X00943Y00711D03*
X00929Y00725D03*
X00915Y00739D03*
X00901Y00753D03*
X00887Y00767D03*
X00873Y00781D03*
X00860Y00795D03*
X00846Y00809D03*
X00832Y00823D03*
X00818Y00837D03*
X00804Y00850D03*
X00790Y00864D03*
X00776Y00878D03*
X00762Y00892D03*
X01075Y01205D03*
X01089Y01191D03*
X01103Y01178D03*
X01117Y01164D03*
X01131Y01150D03*
X01145Y01136D03*
X01159Y01122D03*
X01173Y01108D03*
X01187Y01094D03*
X01201Y01080D03*
X01215Y01066D03*
X01228Y01052D03*
X01242Y01038D03*
X01256Y01024D03*
X01270Y01011D03*
X01284Y00997D03*
G54D40*
X00762Y00997D03*
X00776Y01011D03*
X00790Y01024D03*
X00804Y01038D03*
X00818Y01052D03*
X00832Y01066D03*
X00846Y01080D03*
X00860Y01094D03*
X00873Y01108D03*
X00887Y01122D03*
X00901Y01136D03*
X00915Y01150D03*
X00929Y01164D03*
X00943Y01178D03*
X00957Y01191D03*
X00971Y01205D03*
X01284Y00892D03*
X01270Y00878D03*
X01256Y00864D03*
X01242Y00850D03*
X01228Y00837D03*
X01215Y00823D03*
X01201Y00809D03*
X01187Y00795D03*
X01173Y00781D03*
X01159Y00767D03*
X01145Y00753D03*
X01131Y00739D03*
X01117Y00725D03*
X01103Y00711D03*
X01089Y00697D03*
X01075Y00683D03*
G54D41*
X01001Y02396D03*
X01021D03*
X01040D03*
X01060D03*
X01080D03*
X01099D03*
X01119D03*
X01139D03*
X01158D03*
X01178D03*
X01198D03*
X01218D03*
X01237D03*
X01257D03*
X01277D03*
X01296D03*
Y01953D03*
X01277D03*
X01257D03*
X01237D03*
X01218D03*
X01198D03*
X01178D03*
X01158D03*
X01139D03*
X01119D03*
X01099D03*
X01080D03*
X01060D03*
X01040D03*
X01021D03*
X01001D03*
G54D42*
X01370Y02322D03*
Y02302D03*
Y02283D03*
Y02263D03*
Y02243D03*
Y02224D03*
Y02204D03*
Y02184D03*
Y02165D03*
Y02145D03*
Y02125D03*
Y02106D03*
Y02086D03*
Y02066D03*
Y02047D03*
Y02027D03*
X00927D03*
Y02047D03*
Y02066D03*
Y02086D03*
Y02106D03*
Y02125D03*
Y02145D03*
Y02165D03*
Y02184D03*
Y02204D03*
Y02224D03*
Y02243D03*
Y02263D03*
Y02283D03*
Y02302D03*
Y02322D03*
G54D43*
X01391Y01135D03*
X01350D03*
X00729Y00714D03*
X00687D03*
X01329Y00445D03*
X01288D03*
X01329Y00490D03*
X01288D03*
X01391Y01173D03*
X01350D03*
X01159Y01865D03*
X01200D03*
X01505Y02430D03*
X01463D03*
X00989Y01865D03*
X01030D03*
X01215Y02495D03*
X01174D03*
X00687Y00664D03*
X00729D03*
G54D44*
X01235Y00449D03*
Y00490D03*
X00805Y02245D03*
Y02204D03*
X00640Y02100D03*
Y02141D03*
X01275Y02495D03*
Y02454D03*
X00855Y02075D03*
Y02034D03*
G54D45*
X01873Y01614D03*
Y01581D03*
X01906D03*
Y01614D03*
G54D46*
X00828Y01507D03*
Y01606D03*
G54D47*
X00523Y01557D03*
M02*