%FSDAX23Y23*%
%MOIN*%
%SFA1B1*%

%IPPOS*%
%ADD78C,0.047020*%
%ADD79C,0.070990*%
%ADD80R,0.067060X0.067060*%
%ADD81C,0.067060*%
%ADD82R,0.070990X0.070990*%
%ADD83C,0.025720*%
%ADD84C,0.029720*%
%ADD94C,0.038980*%
%LNtivac-1*%
%LPD*%
G54D78*
X01860Y02475D03*
X01899Y02175D03*
X01820D03*
G54D79*
X01025Y01350D03*
X01925Y00165D03*
X00075Y00162D03*
Y00250D03*
X01925Y00255D03*
X01170Y01785D03*
X00965Y02500D03*
X00075Y00075D03*
X01840Y00290D03*
X01925Y00075D03*
X00160Y02105D03*
X01262Y01785D03*
X01355D03*
X00800D03*
X00892D03*
X01077D03*
X00985D03*
X00420Y01770D03*
Y01685D03*
X00075Y02105D03*
X00245D03*
X01355Y01870D03*
X00525Y01870D03*
G54D80*
X00115Y01340D03*
X01785D03*
G54D81*
X00215Y01340D03*
X00115Y01240D03*
X00215D03*
X00115Y01140D03*
X00215D03*
X00115Y01040D03*
X00215D03*
X00115Y00940D03*
X00215D03*
X00115Y00840D03*
X00215D03*
X00115Y00740D03*
X00215D03*
X00115Y00640D03*
X00215D03*
X00115Y00540D03*
X00215D03*
X00115Y00440D03*
X00215D03*
X01885Y01340D03*
X01785Y01240D03*
X01885D03*
X01785Y01140D03*
X01885D03*
X01785Y01040D03*
X01885D03*
X01785Y00940D03*
X01885D03*
X01785Y00840D03*
X01885D03*
X01785Y00740D03*
X01885D03*
X01785Y00640D03*
X01885D03*
X01785Y00540D03*
X01885D03*
X01785Y00440D03*
X01885D03*
G54D82*
X00625Y01870D03*
G54D83*
X01245Y01094D03*
X01040Y01245D03*
X00710Y01050D03*
X00748Y01041D03*
X01260Y01120D03*
X00737Y00962D03*
X01960Y02125D03*
X01920Y02075D03*
X01100Y01905D03*
X01070Y01900D03*
X00940Y01370D03*
X00700Y00770D03*
X00530Y00660D03*
X01555Y01140D03*
Y01190D03*
X01490Y00790D03*
X01030Y01605D03*
X00630Y00990D03*
X00660Y00955D03*
X00696Y00925D03*
X00305Y00440D03*
Y00393D03*
X01305Y01285D03*
X00305Y00480D03*
X01065Y00625D03*
X01155Y00620D03*
X01282Y00697D03*
X00305Y00595D03*
X01155Y01835D03*
X01110Y01825D03*
X01030Y01815D03*
X01140Y01905D03*
X01332Y02422D03*
X01940Y02295D03*
X00960Y02435D03*
X01926Y00361D03*
X01560Y00412D03*
X01390Y00895D03*
X01645Y01040D03*
X01665Y00390D03*
X01345Y02370D03*
X01240Y02440D03*
X01965Y02420D03*
G54D84*
X01235Y01139D03*
G54D94*
X01835Y02425D03*
Y02375D03*
Y02325D03*
Y02275D03*
Y02225D03*
X01885D03*
Y02275D03*
Y02325D03*
Y02375D03*
Y02425D03*
M02*