%FSDAX23Y23*%
%MOIN*%
%SFA1B1*%

%IPPOS*%
%ADD86C,0.039020*%
%ADD87C,0.062990*%
%ADD88R,0.059060X0.059060*%
%ADD89C,0.059060*%
%ADD90R,0.062990X0.062990*%
%ADD93C,0.030980*%
%LNtivac-1*%
%LPD*%
G54D86*
X01860Y02475D03*
X01899Y02175D03*
X01820D03*
G54D87*
X01025Y01350D03*
X01925Y00165D03*
X00075Y00162D03*
Y00250D03*
X01925Y00255D03*
X01170Y01785D03*
X00965Y02500D03*
X00075Y00075D03*
X01840Y00290D03*
X01925Y00075D03*
X00160Y02105D03*
X01262Y01785D03*
X01355D03*
X00800D03*
X00892D03*
X01077D03*
X00985D03*
X00420Y01770D03*
Y01685D03*
X00075Y02105D03*
X00245D03*
X01355Y01870D03*
X00525Y01870D03*
G54D88*
X00115Y01340D03*
X01785D03*
G54D89*
X00215Y01340D03*
X00115Y01240D03*
X00215D03*
X00115Y01140D03*
X00215D03*
X00115Y01040D03*
X00215D03*
X00115Y00940D03*
X00215D03*
X00115Y00840D03*
X00215D03*
X00115Y00740D03*
X00215D03*
X00115Y00640D03*
X00215D03*
X00115Y00540D03*
X00215D03*
X00115Y00440D03*
X00215D03*
X01885Y01340D03*
X01785Y01240D03*
X01885D03*
X01785Y01140D03*
X01885D03*
X01785Y01040D03*
X01885D03*
X01785Y00940D03*
X01885D03*
X01785Y00840D03*
X01885D03*
X01785Y00740D03*
X01885D03*
X01785Y00640D03*
X01885D03*
X01785Y00540D03*
X01885D03*
X01785Y00440D03*
X01885D03*
G54D90*
X00625Y01870D03*
G54D93*
X01835Y02425D03*
Y02375D03*
Y02325D03*
Y02275D03*
Y02225D03*
X01885D03*
Y02275D03*
Y02325D03*
Y02375D03*
Y02425D03*
M02*