%FSDAX23Y23*%
%MOIN*%
%SFA1B1*%

%IPPOS*%
%ADD87C,0.062990*%
%ADD88R,0.059060X0.059060*%
%ADD91C,0.017720*%
%LNtivac-1*%
%LPD*%
G36*
X01986Y02421D02*
X01981Y02420D01*
X01980Y02426*
X01977Y02432*
X01971Y02435*
X01965Y02437*
X01958Y02435*
X01952Y02432*
X01949Y02426*
X01947Y02420*
X01949Y02413*
X01952Y02407*
X01958Y02404*
X01965Y02402*
X01971Y02404*
X01977Y02407*
X01980Y02413*
X01981Y02419*
X01986Y02418*
Y01336*
X01980Y01330*
X01926*
X01922Y01335*
X01922Y01340*
X01921Y01349*
X01917Y01358*
X01911Y01366*
X01903Y01372*
X01894Y01376*
X01885Y01377*
X01875Y01376*
X01866Y01372*
X01858Y01366*
X01852Y01358*
X01848Y01349*
X01847Y01340*
X01847Y01335*
X01843Y01330*
X01822*
Y01377*
X01747*
Y01330*
X01235*
X01130Y01225*
X01048*
X01047Y01230*
X01052Y01232*
X01055Y01238*
X01057Y01245*
X01055Y01251*
X01052Y01257*
X01046Y01260*
X01040Y01262*
X01033Y01260*
X01027Y01257*
X01024Y01251*
X01022Y01245*
X01024Y01238*
X01027Y01232*
X01032Y01230*
X01031Y01225*
X00253*
X00250Y01229*
X00251Y01230*
X00252Y01240*
X00251Y01249*
X00247Y01258*
X00241Y01266*
X00233Y01272*
X00224Y01276*
X00215Y01277*
X00205Y01276*
X00196Y01272*
X00188Y01266*
X00182Y01258*
X00178Y01249*
X00177Y01240*
X00178Y01230*
X00179Y01229*
X00176Y01225*
X00153*
X00150Y01229*
X00151Y01230*
X00152Y01240*
X00151Y01249*
X00147Y01258*
X00141Y01266*
X00133Y01272*
X00124Y01276*
X00115Y01277*
X00105Y01276*
X00096Y01272*
X00088Y01266*
X00082Y01258*
X00078Y01249*
X00077Y01240*
X00078Y01230*
X00079Y01229*
X00076Y01225*
X00025*
Y02580*
X00024Y02580*
X00026Y02585*
X00758Y02586*
X01986*
Y02421*
G37*
G36*
X01435Y01165D02*
Y01040D01*
X00830Y00435*
X00750*
X00720Y00465*
Y00520*
X00724Y00525*
X00745Y00550*
X00724Y00529*
X00724Y00529*
X00720Y00531*
Y00690*
X01260Y01230*
X01370*
X01435Y01165*
G37*
%LNtivac-2*%
%LPC*%
G36*
X00965Y02539D02*
X00954Y02538D01*
X00945Y02534*
X00936Y02528*
X00930Y02519*
X00926Y02510*
X00925Y02500*
X00926Y02489*
X00930Y02480*
X00936Y02471*
X00945Y02465*
X00954Y02461*
X00965Y02460*
X00975Y02461*
X00984Y02465*
X00993Y02471*
X00999Y02480*
X01003Y02489*
X01004Y02500*
X01003Y02510*
X00999Y02519*
X00993Y02528*
X00984Y02534*
X00975Y02538*
X00965Y02539*
G37*
G36*
X01860Y02502D02*
X01852Y02501D01*
X01846Y02498*
X01840Y02494*
X01836Y02488*
X01833Y02482*
X01832Y02475*
X01833Y02467*
X01836Y02461*
X01840Y02455*
X01846Y02451*
X01852Y02448*
X01860Y02447*
X01867Y02448*
X01873Y02451*
X01879Y02455*
X01883Y02461*
X01886Y02467*
X01887Y02475*
X01886Y02482*
X01883Y02488*
X01879Y02494*
X01873Y02498*
X01867Y02501*
X01860Y02502*
G37*
G36*
X01240Y02457D02*
X01233Y02455D01*
X01227Y02452*
X01224Y02446*
X01222Y02440*
X01224Y02433*
X01227Y02427*
X01233Y02424*
X01240Y02422*
X01246Y02424*
X01252Y02427*
X01255Y02433*
X01257Y02440*
X01255Y02446*
X01252Y02452*
X01246Y02455*
X01240Y02457*
G37*
G36*
X00960Y02452D02*
X00953Y02450D01*
X00947Y02447*
X00944Y02441*
X00942Y02435*
X00944Y02428*
X00947Y02422*
X00953Y02419*
X00960Y02417*
X00966Y02419*
X00972Y02422*
X00975Y02428*
X00977Y02435*
X00975Y02441*
X00972Y02447*
X00966Y02450*
X00960Y02452*
G37*
G36*
X01332Y02439D02*
X01326Y02437D01*
X01320Y02434*
X01316Y02428*
X01315Y02422*
X01316Y02415*
X01320Y02410*
X01326Y02406*
X01332Y02405*
X01339Y02406*
X01344Y02410*
X01348Y02415*
X01349Y02422*
X01348Y02428*
X01344Y02434*
X01339Y02437*
X01332Y02439*
G37*
G36*
X01345Y02387D02*
X01338Y02385D01*
X01332Y02382*
X01329Y02376*
X01327Y02370*
X01329Y02363*
X01332Y02357*
X01338Y02354*
X01345Y02352*
X01351Y02354*
X01357Y02357*
X01360Y02363*
X01362Y02370*
X01360Y02376*
X01357Y02382*
X01351Y02385*
X01345Y02387*
G37*
G36*
X01940Y02312D02*
X01933Y02310D01*
X01927Y02307*
X01924Y02301*
X01922Y02295*
X01924Y02288*
X01927Y02282*
X01933Y02279*
X01940Y02277*
X01946Y02279*
X01952Y02282*
X01955Y02288*
X01957Y02295*
X01955Y02301*
X01952Y02307*
X01946Y02310*
X01940Y02312*
G37*
G36*
X01420Y02258D02*
Y02245D01*
X01433*
X01432Y02247*
X01428Y02253*
X01422Y02257*
X01420Y02258*
G37*
G36*
X01410D02*
X01407Y02257D01*
X01401Y02253*
X01397Y02247*
X01396Y02245*
X01410*
Y02258*
G37*
G36*
X01433Y02235D02*
X01420D01*
Y02221*
X01422Y02222*
X01428Y02226*
X01432Y02232*
X01433Y02235*
G37*
G36*
X01410D02*
X01396D01*
X01397Y02232*
X01401Y02226*
X01407Y02222*
X01410Y02221*
Y02235*
G37*
G36*
X01899Y02202D02*
X01892Y02201D01*
X01886Y02198*
X01880Y02194*
X01876Y02188*
X01873Y02182*
X01872Y02175*
X01873Y02167*
X01876Y02161*
X01880Y02155*
X01886Y02151*
X01892Y02148*
X01899Y02147*
X01907Y02148*
X01913Y02151*
X01919Y02155*
X01923Y02161*
X01926Y02167*
X01927Y02175*
X01926Y02182*
X01923Y02188*
X01919Y02194*
X01913Y02198*
X01907Y02201*
X01899Y02202*
G37*
G36*
X01820D02*
X01812Y02201D01*
X01806Y02198*
X01800Y02194*
X01796Y02188*
X01793Y02182*
X01792Y02175*
X01793Y02167*
X01796Y02161*
X01800Y02155*
X01806Y02151*
X01812Y02148*
X01820Y02147*
X01827Y02148*
X01833Y02151*
X01839Y02155*
X01843Y02161*
X01846Y02167*
X01847Y02175*
X01846Y02182*
X01843Y02188*
X01839Y02194*
X01833Y02198*
X01827Y02201*
X01820Y02202*
G37*
G36*
X01420Y02123D02*
Y02110D01*
X01433*
X01432Y02112*
X01428Y02118*
X01422Y02122*
X01420Y02123*
G37*
G36*
X01410D02*
X01407Y02122D01*
X01401Y02118*
X01397Y02112*
X01396Y02110*
X01410*
Y02123*
G37*
G36*
X01960Y02142D02*
X01953Y02140D01*
X01947Y02137*
X01944Y02131*
X01942Y02125*
X01944Y02118*
X01947Y02112*
X01953Y02109*
X01960Y02107*
X01966Y02109*
X01972Y02112*
X01975Y02118*
X01977Y02125*
X01975Y02131*
X01972Y02137*
X01966Y02140*
X01960Y02142*
G37*
G36*
X01433Y02100D02*
X01420D01*
Y02086*
X01422Y02087*
X01428Y02091*
X01432Y02097*
X01433Y02100*
G37*
G36*
X01410D02*
X01396D01*
X01397Y02097*
X01401Y02091*
X01407Y02087*
X01410Y02086*
Y02100*
G37*
G36*
X00245Y02144D02*
X00235Y02143D01*
X00226Y02139*
X00217Y02133*
X00211Y02124*
X00207Y02115*
X00206Y02105*
X00207Y02094*
X00211Y02085*
X00217Y02076*
X00226Y02070*
X00235Y02066*
X00245Y02065*
X00256Y02066*
X00265Y02070*
X00273Y02076*
X00280Y02085*
X00284Y02094*
X00285Y02105*
X00284Y02115*
X00280Y02124*
X00273Y02133*
X00265Y02139*
X00256Y02143*
X00245Y02144*
G37*
G36*
X00160D02*
X00150Y02143D01*
X00140Y02139*
X00132Y02133*
X00126Y02124*
X00122Y02115*
X00120Y02105*
X00122Y02094*
X00126Y02085*
X00132Y02076*
X00140Y02070*
X00150Y02066*
X00160Y02065*
X00170Y02066*
X00180Y02070*
X00188Y02076*
X00194Y02085*
X00198Y02094*
X00200Y02105*
X00198Y02115*
X00194Y02124*
X00188Y02133*
X00180Y02139*
X00170Y02143*
X00160Y02144*
G37*
G36*
X00075D02*
X00064Y02143D01*
X00055Y02139*
X00046Y02133*
X00040Y02124*
X00036Y02115*
X00035Y02105*
X00036Y02094*
X00040Y02085*
X00046Y02076*
X00055Y02070*
X00064Y02066*
X00075Y02065*
X00085Y02066*
X00094Y02070*
X00103Y02076*
X00109Y02085*
X00113Y02094*
X00114Y02105*
X00113Y02115*
X00109Y02124*
X00103Y02133*
X00094Y02139*
X00085Y02143*
X00075Y02144*
G37*
G36*
X01920Y02092D02*
X01913Y02090D01*
X01907Y02087*
X01904Y02081*
X01902Y02075*
X01904Y02068*
X01907Y02062*
X01913Y02059*
X01920Y02057*
X01926Y02059*
X01932Y02062*
X01935Y02068*
X01937Y02075*
X01935Y02081*
X01932Y02087*
X01926Y02090*
X01920Y02092*
G37*
G36*
X00890Y02053D02*
Y02040D01*
X00903*
X00902Y02042*
X00898Y02048*
X00892Y02052*
X00890Y02053*
G37*
G36*
X00880D02*
X00877Y02052D01*
X00871Y02048*
X00867Y02042*
X00866Y02040*
X00880*
Y02053*
G37*
G36*
X00903Y02030D02*
X00890D01*
Y02016*
X00892Y02017*
X00898Y02021*
X00902Y02027*
X00903Y02030*
G37*
G36*
X00880D02*
X00866D01*
X00867Y02027*
X00871Y02021*
X00877Y02017*
X00880Y02016*
Y02030*
G37*
G36*
X01100Y01922D02*
X01093Y01920D01*
X01087Y01917*
X01086Y01914*
X01082Y01912*
X01079Y01913*
X01076Y01915*
X01070Y01917*
X01063Y01915*
X01057Y01912*
X01054Y01906*
X01052Y01900*
X01054Y01893*
X01057Y01887*
X01063Y01884*
X01070Y01882*
X01076Y01884*
X01082Y01887*
X01083Y01890*
X01087Y01892*
X01090Y01891*
X01093Y01889*
X01100Y01887*
X01106Y01889*
X01112Y01892*
X01115Y01898*
X01117Y01905*
X01115Y01911*
X01112Y01917*
X01106Y01920*
X01100Y01922*
G37*
G36*
X01183Y01916D02*
Y01903D01*
X01196*
X01196Y01906*
X01192Y01912*
X01186Y01916*
X01183Y01916*
G37*
G36*
X01196Y01893D02*
X01183D01*
Y01880*
X01186Y01880*
X01192Y01885*
X01196Y01891*
X01196Y01893*
G37*
G36*
X01140Y01922D02*
X01133Y01920D01*
X01127Y01917*
X01124Y01911*
X01122Y01905*
X01124Y01898*
X01127Y01892*
X01133Y01889*
X01140Y01887*
X01146Y01889*
X01152Y01892*
X01154Y01896*
X01159Y01895*
X01160Y01891*
X01165Y01885*
X01171Y01880*
X01173Y01880*
Y01898*
Y01916*
X01171Y01916*
X01165Y01912*
X01161Y01907*
X01156Y01907*
X01156Y01907*
X01155Y01911*
X01152Y01917*
X01146Y01920*
X01140Y01922*
G37*
G36*
X00530Y01911D02*
Y01875D01*
X00566*
X00565Y01880*
X00561Y01890*
X00554Y01899*
X00545Y01906*
X00535Y01910*
X00530Y01911*
G37*
G36*
X00520D02*
X00514Y01910D01*
X00504Y01906*
X00495Y01899*
X00488Y01890*
X00484Y01880*
X00483Y01875*
X00520*
Y01911*
G37*
G36*
X01355Y01910D02*
X01344Y01908D01*
X01335Y01904*
X01326Y01898*
X01320Y01890*
X01316Y01880*
X01315Y01870*
X01316Y01860*
X01320Y01850*
X01326Y01842*
X01335Y01836*
X01344Y01832*
X01355Y01830*
X01365Y01832*
X01374Y01836*
X01383Y01842*
X01389Y01850*
X01393Y01860*
X01394Y01870*
X01393Y01880*
X01389Y01890*
X01383Y01898*
X01374Y01904*
X01365Y01908*
X01355Y01910*
G37*
G36*
X00664Y01909D02*
X00585D01*
Y01830*
X00664*
Y01909*
G37*
G36*
X00566Y01865D02*
X00530D01*
Y01828*
X00535Y01829*
X00545Y01833*
X00554Y01840*
X00561Y01849*
X00565Y01859*
X00566Y01865*
G37*
G36*
X00520D02*
X00483D01*
X00484Y01859*
X00488Y01849*
X00495Y01840*
X00504Y01833*
X00514Y01829*
X00520Y01828*
Y01865*
G37*
G36*
X01110Y01842D02*
X01103Y01840D01*
X01097Y01837*
X01094Y01831*
X01093Y01826*
X01088Y01823*
X01087Y01823*
X01077Y01824*
X01067Y01823*
X01057Y01819*
X01051Y01814*
X01051*
X01046Y01817*
X01045Y01821*
X01042Y01827*
X01036Y01830*
X01030Y01832*
X01023Y01830*
X01017Y01827*
X01014Y01821*
X01013Y01818*
X01008Y01816*
X01004Y01819*
X00995Y01823*
X00985Y01824*
X00974Y01823*
X00965Y01819*
X00956Y01813*
X00950Y01804*
X00946Y01795*
X00945Y01785*
X00946Y01774*
X00950Y01765*
X00956Y01756*
X00965Y01750*
X00974Y01746*
X00985Y01745*
X00995Y01746*
X01004Y01750*
X01013Y01756*
X01019Y01765*
X01023Y01774*
X01024Y01785*
X01023Y01794*
X01025Y01797*
X01027Y01798*
X01030Y01797*
X01035Y01798*
X01038Y01796*
X01039Y01795*
X01037Y01785*
X01039Y01774*
X01043Y01765*
X01049Y01756*
X01057Y01750*
X01067Y01746*
X01077Y01745*
X01087Y01746*
X01097Y01750*
X01105Y01756*
X01111Y01765*
X01115Y01774*
X01117Y01785*
X01115Y01795*
X01112Y01803*
X01114Y01807*
X01115Y01808*
X01116Y01809*
X01122Y01812*
X01125Y01818*
X01127Y01825*
X01125Y01831*
X01122Y01837*
X01116Y01840*
X01110Y01842*
G37*
G36*
X01355Y01824D02*
X01344Y01823D01*
X01335Y01819*
X01326Y01813*
X01320Y01804*
X01316Y01795*
X01315Y01785*
X01316Y01774*
X01320Y01765*
X01326Y01756*
X01335Y01750*
X01344Y01746*
X01355Y01745*
X01365Y01746*
X01374Y01750*
X01383Y01756*
X01389Y01765*
X01393Y01774*
X01394Y01785*
X01393Y01795*
X01389Y01804*
X01383Y01813*
X01374Y01819*
X01365Y01823*
X01355Y01824*
G37*
G36*
X01262D02*
X01252Y01823D01*
X01242Y01819*
X01234Y01813*
X01228Y01804*
X01224Y01795*
X01222Y01785*
X01224Y01774*
X01228Y01765*
X01234Y01756*
X01242Y01750*
X01252Y01746*
X01262Y01745*
X01272Y01746*
X01282Y01750*
X01290Y01756*
X01296Y01765*
X01300Y01774*
X01302Y01785*
X01300Y01795*
X01296Y01804*
X01290Y01813*
X01282Y01819*
X01272Y01823*
X01262Y01824*
G37*
G36*
X01155Y01852D02*
X01148Y01850D01*
X01142Y01847*
X01139Y01841*
X01137Y01835*
X01139Y01828*
X01142Y01822*
X01144Y01821*
X01145Y01815*
X01141Y01813*
X01135Y01804*
X01131Y01795*
X01130Y01785*
X01131Y01774*
X01135Y01765*
X01141Y01756*
X01150Y01750*
X01159Y01746*
X01170Y01745*
X01180Y01746*
X01189Y01750*
X01198Y01756*
X01204Y01765*
X01208Y01774*
X01209Y01785*
X01208Y01795*
X01204Y01804*
X01198Y01813*
X01189Y01819*
X01180Y01823*
X01173Y01824*
X01172Y01826*
X01170Y01829*
X01172Y01835*
X01170Y01841*
X01167Y01847*
X01161Y01850*
X01155Y01852*
G37*
G36*
X00892Y01824D02*
X00882Y01823D01*
X00872Y01819*
X00864Y01813*
X00858Y01804*
X00854Y01795*
X00852Y01785*
X00854Y01774*
X00858Y01765*
X00864Y01756*
X00872Y01750*
X00882Y01746*
X00892Y01745*
X00902Y01746*
X00912Y01750*
X00920Y01756*
X00926Y01765*
X00930Y01774*
X00932Y01785*
X00930Y01795*
X00926Y01804*
X00920Y01813*
X00912Y01819*
X00902Y01823*
X00892Y01824*
G37*
G36*
X00800D02*
X00789Y01823D01*
X00780Y01819*
X00771Y01813*
X00765Y01804*
X00761Y01795*
X00760Y01785*
X00761Y01774*
X00765Y01765*
X00771Y01756*
X00780Y01750*
X00789Y01746*
X00800Y01745*
X00810Y01746*
X00819Y01750*
X00828Y01756*
X00834Y01765*
X00838Y01774*
X00839Y01785*
X00838Y01795*
X00834Y01804*
X00828Y01813*
X00819Y01819*
X00810Y01823*
X00800Y01824*
G37*
G36*
X00420Y01810D02*
X00409Y01808D01*
X00400Y01804*
X00391Y01798*
X00385Y01790*
X00381Y01780*
X00380Y01770*
X00381Y01760*
X00385Y01750*
X00391Y01742*
X00400Y01736*
X00409Y01732*
X00420Y01730*
X00430Y01732*
X00439Y01736*
X00448Y01742*
X00454Y01750*
X00458Y01760*
X00459Y01770*
X00458Y01780*
X00454Y01790*
X00448Y01798*
X00439Y01804*
X00430Y01808*
X00420Y01810*
G37*
G36*
Y01724D02*
X00409Y01723D01*
X00400Y01719*
X00391Y01713*
X00385Y01704*
X00381Y01695*
X00380Y01685*
X00381Y01674*
X00385Y01665*
X00391Y01656*
X00400Y01650*
X00409Y01646*
X00420Y01645*
X00430Y01646*
X00439Y01650*
X00448Y01656*
X00454Y01665*
X00458Y01674*
X00459Y01685*
X00458Y01695*
X00454Y01704*
X00448Y01713*
X00439Y01719*
X00430Y01723*
X00420Y01724*
G37*
G36*
X01030Y01622D02*
X01023Y01620D01*
X01017Y01617*
X01014Y01611*
X01012Y01605*
X01014Y01598*
X01017Y01592*
X01023Y01589*
X01030Y01587*
X01036Y01589*
X01042Y01592*
X01045Y01598*
X01047Y01605*
X01045Y01611*
X01042Y01617*
X01036Y01620*
X01030Y01622*
G37*
G36*
X00940Y01387D02*
X00933Y01385D01*
X00927Y01382*
X00924Y01376*
X00922Y01370*
X00924Y01363*
X00927Y01357*
X00933Y01354*
X00940Y01352*
X00946Y01354*
X00952Y01357*
X00955Y01363*
X00957Y01370*
X00955Y01376*
X00952Y01382*
X00946Y01385*
X00940Y01387*
G37*
G36*
X00154Y01379D02*
X00120D01*
Y01345*
X00154*
Y01379*
G37*
G36*
X00110D02*
X00075D01*
Y01345*
X00110*
Y01379*
G37*
G36*
X01025Y01389D02*
X01014Y01388D01*
X01005Y01384*
X00996Y01378*
X00990Y01369*
X00986Y01360*
X00985Y01350*
X00986Y01339*
X00990Y01330*
X00996Y01321*
X01005Y01315*
X01014Y01311*
X01025Y01310*
X01035Y01311*
X01044Y01315*
X01053Y01321*
X01059Y01330*
X01063Y01339*
X01064Y01350*
X01063Y01360*
X01059Y01369*
X01053Y01378*
X01044Y01384*
X01035Y01388*
X01025Y01389*
G37*
G36*
X00215Y01377D02*
X00205Y01376D01*
X00196Y01372*
X00188Y01366*
X00182Y01358*
X00178Y01349*
X00177Y01340*
X00178Y01330*
X00182Y01321*
X00188Y01313*
X00196Y01307*
X00205Y01303*
X00215Y01302*
X00224Y01303*
X00233Y01307*
X00241Y01313*
X00247Y01321*
X00251Y01330*
X00252Y01340*
X00251Y01349*
X00247Y01358*
X00241Y01366*
X00233Y01372*
X00224Y01376*
X00215Y01377*
G37*
G36*
X00154Y01335D02*
X00120D01*
Y01300*
X00154*
Y01335*
G37*
G36*
X00110D02*
X00075D01*
Y01300*
X00110*
Y01335*
G37*
G36*
X01310Y01163D02*
Y01150D01*
X01323*
X01322Y01152*
X01318Y01158*
X01312Y01162*
X01310Y01163*
G37*
G36*
X01300D02*
X01297Y01162D01*
X01291Y01158*
X01287Y01152*
X01286Y01150*
X01300*
Y01163*
G37*
G36*
X01323Y01140D02*
X01310D01*
Y01126*
X01312Y01127*
X01318Y01131*
X01322Y01137*
X01323Y01140*
G37*
G36*
X01300D02*
X01286D01*
X01287Y01137*
X01291Y01131*
X01297Y01127*
X01300Y01126*
Y01140*
G37*
G36*
X01235Y01156D02*
X01228Y01155D01*
X01223Y01151*
X01219Y01146*
X01218Y01139*
X01219Y01133*
X01223Y01127*
X01228Y01123*
X01235Y01122*
X01238Y01123*
X01242Y01120*
X01243Y01119*
X01244Y01113*
X01240Y01110*
X01238Y01110*
X01233Y01106*
X01229Y01101*
X01228Y01094*
X01229Y01088*
X01233Y01082*
X01238Y01079*
X01245Y01077*
X01251Y01079*
X01257Y01082*
X01260Y01088*
X01262Y01094*
X01260Y01101*
X01265Y01103*
X01266Y01104*
X01272Y01107*
X01275Y01113*
X01277Y01120*
X01275Y01126*
X01272Y01132*
X01266Y01135*
X01260Y01137*
X01257Y01136*
X01252Y01139*
X01252Y01140*
X01251Y01146*
X01247Y01151*
X01241Y01155*
X01235Y01156*
G37*
G36*
X00785Y00518D02*
Y00505D01*
X00798*
X00797Y00507*
X00793Y00513*
X00787Y00517*
X00785Y00518*
G37*
G36*
X00775D02*
X00772Y00517D01*
X00766Y00513*
X00762Y00507*
X00761Y00505*
X00775*
Y00518*
G37*
G36*
X00798Y00495D02*
X00785D01*
Y00481*
X00787Y00482*
X00793Y00486*
X00797Y00492*
X00798Y00495*
G37*
G36*
X00775D02*
X00761D01*
X00762Y00492*
X00766Y00486*
X00772Y00482*
X00775Y00481*
Y00495*
G37*
%LNtivac-3*%
%LPD*%
G54D87*
X00525Y01870D03*
G54D88*
X00115Y01340D03*
G54D91*
X00780Y00500D03*
X01305Y01145D03*
X01415Y02240D03*
X01178Y01898D03*
X01415Y02105D03*
X00885Y02035D03*
M02*