%FSDAX23Y23*%
%MOIN*%
%SFA1B1*%

%IPPOS*%
%AMD67*
4,1,8,-0.020700,0.004900,-0.020700,-0.004900,-0.014700,-0.010900,0.014700,-0.010900,0.020700,-0.004900,0.020700,0.004900,0.014700,0.010900,-0.014700,0.010900,-0.020700,0.004900,0.0*
1,1,0.012000,-0.014700,0.004900*
1,1,0.012000,-0.014700,-0.004900*
1,1,0.012000,0.014700,-0.004900*
1,1,0.012000,0.014700,0.004900*
%
%AMD68*
4,1,8,-0.033500,0.047100,-0.033500,-0.047100,-0.027500,-0.053200,0.027500,-0.053200,0.033500,-0.047100,0.033500,0.047100,0.027500,0.053200,-0.027500,0.053200,-0.033500,0.047100,0.0*
1,1,0.012140,-0.027500,0.047100*
1,1,0.012140,-0.027500,-0.047100*
1,1,0.012140,0.027500,-0.047100*
1,1,0.012140,0.027500,0.047100*
%
%AMD69*
4,1,8,-0.022300,-0.018200,-0.018200,-0.022300,-0.009700,-0.022300,0.022300,0.009700,0.022300,0.018200,0.018200,0.022300,0.009700,0.022300,-0.022300,-0.009700,-0.022300,-0.018200,0.0*
1,1,0.011940,-0.018000,-0.013900*
1,1,0.011940,-0.013900,-0.018000*
1,1,0.011940,0.018000,0.013900*
1,1,0.011940,0.013900,0.018000*
%
%AMD70*
4,1,8,0.018200,-0.022300,0.022300,-0.018200,0.022300,-0.009700,-0.009700,0.022300,-0.018200,0.022300,-0.022300,0.018200,-0.022300,0.009700,0.009700,-0.022300,0.018200,-0.022300,0.0*
1,1,0.011940,0.013900,-0.018000*
1,1,0.011940,0.018000,-0.013900*
1,1,0.011940,-0.013900,0.018000*
1,1,0.011940,-0.018000,0.013900*
%
%AMD71*
4,1,8,0.002900,0.028600,-0.002900,0.028600,-0.008900,0.022600,-0.008900,-0.022600,-0.002900,-0.028600,0.002900,-0.028600,0.008900,-0.022600,0.008900,0.022600,0.002900,0.028600,0.0*
1,1,0.011940,0.002900,0.022600*
1,1,0.011940,-0.002900,0.022600*
1,1,0.011940,-0.002900,-0.022600*
1,1,0.011940,0.002900,-0.022600*
%
%AMD72*
4,1,8,-0.028600,0.002900,-0.028600,-0.002900,-0.022600,-0.008900,0.022600,-0.008900,0.028600,-0.002900,0.028600,0.002900,0.022600,0.008900,-0.022600,0.008900,-0.028600,0.002900,0.0*
1,1,0.011940,-0.022600,0.002900*
1,1,0.011940,-0.022600,-0.002900*
1,1,0.011940,0.022600,-0.002900*
1,1,0.011940,0.022600,0.002900*
%
%ADD27R,0.045530X0.041820*%
%ADD32R,0.047240X0.047240*%
%ADD33R,0.047240X0.098430*%
%ADD48R,0.061150X0.023750*%
%ADD49R,0.070990X0.090680*%
%ADD50R,0.082800X0.078870*%
%ADD51R,0.082800X0.082800*%
%ADD52R,0.078870X0.082800*%
%ADD53R,0.082800X0.082800*%
%ADD54R,0.090680X0.070990*%
%ADD55R,0.023750X0.061150*%
%ADD56R,0.028470X0.029260*%
%ADD57R,0.029260X0.028470*%
%ADD58R,0.086740X0.102490*%
%ADD59R,0.102490X0.086740*%
%ADD60R,0.027690X0.025720*%
%ADD61R,0.025720X0.027690*%
%ADD62R,0.028000X0.022020*%
%ADD63R,0.037530X0.041470*%
%ADD64R,0.069020X0.059180*%
%ADD65R,0.031620X0.033200*%
%ADD66R,0.033200X0.031620*%
G04~CAMADD=67~8~0.0~0.0~217.8~414.7~60.0~0.0~15~0.0~0.0~0.0~0.0~0~0.0~0.0~0.0~0.0~0~0.0~0.0~0.0~90.0~414.0~218.0*
%ADD67D67*%
G04~CAMADD=68~8~0.0~0.0~1064.2~670.6~60.7~0.0~15~0.0~0.0~0.0~0.0~0~0.0~0.0~0.0~0.0~0~0.0~0.0~0.0~90.0~670.0~1064.0*
%ADD68D68*%
G04~CAMADD=69~8~0.0~0.0~178.4~572.1~59.7~0.0~15~0.0~0.0~0.0~0.0~0~0.0~0.0~0.0~0.0~0~0.0~0.0~0.0~135.0~482.0~481.0*
%ADD69D69*%
G04~CAMADD=70~8~0.0~0.0~178.4~572.1~59.7~0.0~15~0.0~0.0~0.0~0.0~0~0.0~0.0~0.0~0.0~0~0.0~0.0~0.0~225.0~482.0~481.0*
%ADD70D70*%
G04~CAMADD=71~8~0.0~0.0~178.4~572.1~59.7~0.0~15~0.0~0.0~0.0~0.0~0~0.0~0.0~0.0~0.0~0~0.0~0.0~0.0~0.0~178.4~572.1*
%ADD71D71*%
G04~CAMADD=72~8~0.0~0.0~178.4~572.1~59.7~0.0~15~0.0~0.0~0.0~0.0~0~0.0~0.0~0.0~0.0~0~0.0~0.0~0.0~90.0~572.0~178.0*
%ADD72D72*%
%ADD73R,0.031620X0.031620*%
%ADD74R,0.031620X0.031620*%
%ADD75R,0.025720X0.025720*%
%ADD76R,0.106420X0.047370*%
%ADD77R,0.106420X0.106420*%
%ADD78C,0.047020*%
%ADD79C,0.070990*%
%ADD80R,0.067060X0.067060*%
%ADD81C,0.067060*%
%ADD82R,0.070990X0.070990*%
%ADD83C,0.025720*%
%ADD84C,0.029720*%
%LNtivac-1*%
%LPD*%
G54D27*
X01601Y01040D03*
X01534D03*
X01462Y01601D03*
X01395D03*
X00886Y00512D03*
X00953D03*
X01041D03*
X01108D03*
X01444Y01495D03*
X01511D03*
X01440Y01406D03*
X01507D03*
X00666Y00250D03*
X00733D03*
X00193Y01955D03*
X00126D03*
X00428Y02246D03*
X00495D03*
X01523Y02245D03*
X01456D03*
X00556Y01234D03*
X00489D03*
G54D32*
X00735Y02038D03*
Y02121D03*
G54D33*
X00186Y02521D03*
Y02305D03*
X00088D03*
Y02521D03*
X00285D03*
Y02305D03*
G54D48*
X00228Y01713D03*
Y01688D03*
Y01662D03*
Y01637D03*
Y01611D03*
G54D49*
X00223Y01784D03*
X00213Y01542D03*
G54D50*
X00123Y01820D03*
Y01505D03*
G54D51*
X00123Y01710D03*
Y01615D03*
G54D52*
X00516Y02525D03*
X00831D03*
G54D53*
X00626Y02525D03*
X00720D03*
G54D54*
X00553Y02435D03*
X00795Y02424D03*
G54D55*
X00622Y02419D03*
X00647D03*
X00673D03*
X00699D03*
X00724D03*
G54D56*
X01613Y02405D03*
Y02375D03*
Y02234D03*
Y02265D03*
G54D57*
X00417Y01223D03*
X00448D03*
X00641D03*
X00610D03*
G54D58*
X00612Y01380D03*
X00769D03*
G54D59*
X01745Y02255D03*
Y02412D03*
G54D60*
X01792Y01514D03*
X01763D03*
X01794Y01590D03*
X01765D03*
X01794Y01670D03*
X01765D03*
X01560Y00390D03*
X01589D03*
X01115Y01345D03*
X01144D03*
G54D61*
X00800Y01845D03*
Y01874D03*
X00807Y02005D03*
Y02034D03*
X01940Y02269D03*
Y02240D03*
Y02420D03*
Y02390D03*
X00895Y01848D03*
Y01878D03*
X00400Y02505D03*
Y02534D03*
X00640Y02051D03*
Y02021D03*
X00924Y01430D03*
Y01401D03*
G54D62*
X01644Y01517D03*
Y01478D03*
X01695Y01498D03*
X01642Y01688D03*
Y01649D03*
X01693Y01669D03*
X01641Y01610D03*
Y01571D03*
X01692Y01591D03*
G54D63*
X01055Y02495D03*
X01104D03*
X01392Y01247D03*
X01441D03*
G54D64*
X00198Y00071D03*
Y00248D03*
X00511D03*
Y00071D03*
X01428Y00081D03*
Y00258D03*
X01741D03*
Y00081D03*
X01921Y02018D03*
Y01841D03*
X01608D03*
Y02018D03*
G54D65*
X01503Y02355D03*
X01466D03*
X01113Y01865D03*
X01075D03*
X00543Y01158D03*
X00506D03*
X00689Y00614D03*
X00727D03*
G54D66*
X00400Y02052D03*
Y02090D03*
X00930Y01517D03*
Y01479D03*
Y01603D03*
Y01566D03*
G54D67*
X00471Y02109D03*
Y02084D03*
Y02058D03*
Y02032D03*
X00588Y02109D03*
Y02084D03*
Y02058D03*
Y02032D03*
G54D68*
X00530Y02071D03*
G54D69*
X00971Y00683D03*
X00957Y00697D03*
X00943Y00711D03*
X00929Y00725D03*
X00915Y00739D03*
X00901Y00753D03*
X00887Y00767D03*
X00873Y00781D03*
X00860Y00795D03*
X00846Y00809D03*
X00832Y00823D03*
X00818Y00837D03*
X00804Y00850D03*
X00790Y00864D03*
X00776Y00878D03*
X00762Y00892D03*
X01075Y01205D03*
X01089Y01191D03*
X01103Y01178D03*
X01117Y01164D03*
X01131Y01150D03*
X01145Y01136D03*
X01159Y01122D03*
X01173Y01108D03*
X01187Y01094D03*
X01201Y01080D03*
X01215Y01066D03*
X01228Y01052D03*
X01242Y01038D03*
X01256Y01024D03*
X01270Y01011D03*
X01284Y00997D03*
G54D70*
X00762Y00997D03*
X00776Y01011D03*
X00790Y01024D03*
X00804Y01038D03*
X00818Y01052D03*
X00832Y01066D03*
X00846Y01080D03*
X00860Y01094D03*
X00873Y01108D03*
X00887Y01122D03*
X00901Y01136D03*
X00915Y01150D03*
X00929Y01164D03*
X00943Y01178D03*
X00957Y01191D03*
X00971Y01205D03*
X01284Y00892D03*
X01270Y00878D03*
X01256Y00864D03*
X01242Y00850D03*
X01228Y00837D03*
X01215Y00823D03*
X01201Y00809D03*
X01187Y00795D03*
X01173Y00781D03*
X01159Y00767D03*
X01145Y00753D03*
X01131Y00739D03*
X01117Y00725D03*
X01103Y00711D03*
X01089Y00697D03*
X01075Y00683D03*
G54D71*
X01001Y02396D03*
X01021D03*
X01040D03*
X01060D03*
X01080D03*
X01099D03*
X01119D03*
X01139D03*
X01158D03*
X01178D03*
X01198D03*
X01218D03*
X01237D03*
X01257D03*
X01277D03*
X01296D03*
Y01953D03*
X01277D03*
X01257D03*
X01237D03*
X01218D03*
X01198D03*
X01178D03*
X01158D03*
X01139D03*
X01119D03*
X01099D03*
X01080D03*
X01060D03*
X01040D03*
X01021D03*
X01001D03*
G54D72*
X01370Y02322D03*
Y02302D03*
Y02283D03*
Y02263D03*
Y02243D03*
Y02224D03*
Y02204D03*
Y02184D03*
Y02165D03*
Y02145D03*
Y02125D03*
Y02106D03*
Y02086D03*
Y02066D03*
Y02047D03*
Y02027D03*
X00927D03*
Y02047D03*
Y02066D03*
Y02086D03*
Y02106D03*
Y02125D03*
Y02145D03*
Y02165D03*
Y02184D03*
Y02204D03*
Y02224D03*
Y02243D03*
Y02263D03*
Y02283D03*
Y02302D03*
Y02322D03*
G54D73*
X01391Y01135D03*
X01350D03*
X00729Y00714D03*
X00687D03*
X01329Y00445D03*
X01288D03*
X01329Y00490D03*
X01288D03*
X01391Y01173D03*
X01350D03*
X01159Y01865D03*
X01200D03*
X01505Y02430D03*
X01463D03*
X00989Y01865D03*
X01030D03*
X01215Y02495D03*
X01174D03*
X00687Y00664D03*
X00729D03*
G54D74*
X01235Y00449D03*
Y00490D03*
X00805Y02245D03*
Y02204D03*
X00640Y02100D03*
Y02141D03*
X01275Y02495D03*
Y02454D03*
X00855Y02075D03*
Y02034D03*
G54D75*
X01873Y01614D03*
Y01581D03*
X01906D03*
Y01614D03*
G54D76*
X00828Y01507D03*
Y01606D03*
G54D77*
X00523Y01557D03*
G54D78*
X01860Y02475D03*
X01899Y02175D03*
X01820D03*
G54D79*
X01025Y01350D03*
X01925Y00165D03*
X00075Y00162D03*
Y00250D03*
X01925Y00255D03*
X01170Y01785D03*
X00965Y02500D03*
X00075Y00075D03*
X01840Y00290D03*
X01925Y00075D03*
X00160Y02105D03*
X01262Y01785D03*
X01355D03*
X00800D03*
X00892D03*
X01077D03*
X00985D03*
X00420Y01770D03*
Y01685D03*
X00075Y02105D03*
X00245D03*
X01355Y01870D03*
X00525Y01870D03*
G54D80*
X00115Y01340D03*
X01785D03*
G54D81*
X00215Y01340D03*
X00115Y01240D03*
X00215D03*
X00115Y01140D03*
X00215D03*
X00115Y01040D03*
X00215D03*
X00115Y00940D03*
X00215D03*
X00115Y00840D03*
X00215D03*
X00115Y00740D03*
X00215D03*
X00115Y00640D03*
X00215D03*
X00115Y00540D03*
X00215D03*
X00115Y00440D03*
X00215D03*
X01885Y01340D03*
X01785Y01240D03*
X01885D03*
X01785Y01140D03*
X01885D03*
X01785Y01040D03*
X01885D03*
X01785Y00940D03*
X01885D03*
X01785Y00840D03*
X01885D03*
X01785Y00740D03*
X01885D03*
X01785Y00640D03*
X01885D03*
X01785Y00540D03*
X01885D03*
X01785Y00440D03*
X01885D03*
G54D82*
X00625Y01870D03*
G54D83*
X00725Y02365D03*
X01209Y01145D03*
X01245Y01094D03*
X01040Y01245D03*
X01265Y00744D03*
X00830Y01125D03*
X00900Y01340D03*
X00710Y01050D03*
X00943Y00646D03*
X01250Y00785D03*
X00840Y00747D03*
X01282Y00697D03*
X01355Y01080D03*
X01195Y01200D03*
X01240Y00690D03*
X01331Y00540D03*
X00980Y01580D03*
X00975Y00640D03*
X01560Y01265D03*
X00960Y01400D03*
X00748Y01041D03*
X00775Y00661D03*
X00870Y00720D03*
X01260Y01120D03*
X01230Y00725D03*
X01305Y01285D03*
X00660Y00955D03*
X01065Y00625D03*
X01290Y01310D03*
X00770Y01073D03*
X00732Y01080D03*
X00864Y01284D03*
X00750Y00768D03*
X01385Y01400D03*
X00915Y00638D03*
X01202Y00697D03*
X01515Y01200D03*
X01285Y01050D03*
X00865Y00690D03*
X00696Y00925D03*
X01291Y01088D03*
X00630Y00990D03*
X01130Y00665D03*
X01295Y00770D03*
X01185Y01175D03*
X00737Y00962D03*
X00860Y01155D03*
X00700Y00770D03*
X00650Y01960D03*
X01935Y01670D03*
X01960Y02125D03*
X00780Y00500D03*
X01305Y01145D03*
X01440Y02145D03*
X00955Y01840D03*
X01320Y01960D03*
X00245Y01990D03*
X01450Y02105D03*
X01415Y02240D03*
X01178Y01898D03*
X00670Y00520D03*
X00507Y02137D03*
X01645Y02085D03*
X01390Y01095D03*
X01617Y02305D03*
X01920Y02075D03*
X01940Y02205D03*
X01415Y02105D03*
X01085Y02525D03*
X00670Y02195D03*
X01100Y01905D03*
X01070Y01900D03*
X00940Y01370D03*
X01460Y01975D03*
X01410Y01925D03*
X01239Y01899D03*
X01290Y01895D03*
X01355Y01974D03*
X01315Y00610D03*
X01555Y01140D03*
Y01190D03*
X01490Y00790D03*
X00894Y01520D03*
X00860Y01425D03*
X00880Y01565D03*
X01030Y01605D03*
X00305Y00995D03*
X00850Y00645D03*
X00305Y00440D03*
Y00393D03*
Y00480D03*
Y00540D03*
X01155Y00620D03*
X00305Y00595D03*
Y00640D03*
Y00695D03*
Y00740D03*
Y00795D03*
Y00840D03*
Y00900D03*
Y00940D03*
Y01035D03*
Y01073D03*
Y01109D03*
Y01145D03*
X01155Y01835D03*
X01275Y01235D03*
X01170Y01320D03*
X01220Y01440D03*
X01505Y01340D03*
X01335Y01675D03*
X01265Y01685D03*
X00470Y01300D03*
X00780Y01285D03*
X01110Y01700D03*
X00710D03*
X01235Y01835D03*
X01002Y01912D03*
X01285Y01860D03*
X01110Y01825D03*
X01030Y01815D03*
X00969Y01955D03*
X01140Y01905D03*
X01095Y02445D03*
X00255Y02035D03*
X00050D03*
X01370Y02455D03*
X01301D03*
X01332Y02422D03*
X01940Y02295D03*
X00960Y02435D03*
X00805Y02075D03*
Y02150D03*
X00395Y02420D03*
X01926Y00361D03*
X01560Y00412D03*
X01390Y00895D03*
X01645Y01040D03*
X01665Y00390D03*
X01305Y01173D03*
X01655Y00710D03*
Y00635D03*
Y00595D03*
X01345Y02370D03*
X01240Y02440D03*
X01965Y02420D03*
X01590Y02175D03*
X01656Y02228D03*
X01415Y02365D03*
X00450Y02505D03*
X01470Y01040D03*
X01700Y00985D03*
X01685Y00540D03*
X01180Y00490D03*
X01595Y01690D03*
X01545Y01560D03*
X01595Y01610D03*
X01585Y01530D03*
X00885Y02035D03*
G54D84*
X01235Y01139D03*
M02*